      <svg
        width="427"
        height="229"
        viewBox="0 0 427 229"
        fill="none"
        xmlns="http://www.w3.org/2000/svg"
      >
        <path
          d="M406.105 212.003C408.526 212.003 410.49 210.001 410.49 207.532C410.49 205.063 408.526 203.061 406.105 203.061C403.683 203.061 401.72 205.063 401.72 207.532C401.72 210.001 403.683 212.003 406.105 212.003Z"
          fill="#364F6B"
        />
        <path
          d="M415.012 185.153C406.256 185.153 397.86 188.7 391.669 195.012C385.478 201.325 382 209.887 382 218.815C382 227.742 385.478 236.304 391.669 242.617C397.86 248.93 406.256 252.477 415.012 252.477C423.767 252.477 432.163 248.93 438.354 242.617C444.545 236.304 448.023 227.742 448.023 218.815C448.023 209.887 444.545 201.325 438.354 195.012C432.163 188.7 423.767 185.153 415.012 185.153ZM415.012 245.392C408.099 245.392 401.47 242.592 396.582 237.608C391.694 232.624 388.948 225.864 388.948 218.815C388.948 211.766 391.694 205.006 396.582 200.022C401.47 195.038 408.099 192.238 415.012 192.238C421.924 192.238 428.554 195.038 433.442 200.022C438.33 205.006 441.076 211.766 441.076 218.815C441.076 225.864 438.33 232.624 433.442 237.608C428.554 242.592 421.924 245.392 415.012 245.392Z"
          fill="#FFDFDF"
        />
        <path
          d="M354.121 18.8553L365.242 -0.786163H343L354.121 18.8553Z"
          fill="#364F6B"
        />
        <path
          d="M3.5285 180.739L-24.3301 209.145C-24.2384 208.669 -24.1368 208.195 -24.0254 207.722L2.13196 181.049C2.59557 180.936 3.06108 180.832 3.5285 180.739Z"
          fill="#FFDFDF"
        />
        <path
          d="M7.94521 180.142L-2.68388 190.981C-3.6455 191.501 -4.57621 192.078 -5.47119 192.71L6.75099 180.247C7.14827 180.205 7.54634 180.17 7.94521 180.142Z"
          fill="#FFDFDF"
        />
        <path
          d="M11.8318 180.084L3.54264 188.536C3.03239 188.665 2.5247 188.811 2.01953 188.973L10.768 180.055C11.1228 180.06 11.4774 180.069 11.8318 180.084Z"
          fill="#FFDFDF"
        />
        <path
          d="M15.3466 180.406L8.13359 187.761C7.72773 187.793 7.32204 187.836 6.9165 187.89L14.378 180.281C14.7019 180.318 15.0248 180.359 15.3466 180.406Z"
          fill="#FFDFDF"
        />
        <path
          d="M18.5723 181.023L12.0109 187.714C11.6619 187.693 11.3114 187.68 10.9595 187.674L17.6798 180.821C17.9778 180.883 18.2753 180.951 18.5723 181.023Z"
          fill="#FFDFDF"
        />
        <path
          d="M29.3569 185.65L23.9094 191.205C23.6743 191.071 23.4377 190.942 23.1987 190.817L28.6834 185.224C28.9094 185.363 29.1339 185.505 29.3569 185.65Z"
          fill="#FFDFDF"
        />
        <path
          d="M31.6227 187.246L26.2746 192.699C26.0585 192.546 25.8407 192.397 25.6211 192.253L30.993 186.775C31.204 186.929 31.4139 187.086 31.6227 187.246Z"
          fill="#FFDFDF"
        />
        <path
          d="M33.7369 188.997L28.4435 194.394C28.2458 194.223 28.0462 194.055 27.8447 193.891L33.15 188.483C33.3474 188.652 33.543 188.823 33.7369 188.997Z"
          fill="#FFDFDF"
        />
        <path
          d="M35.7044 190.896L30.4258 196.278C30.3411 196.189 30.2559 196.102 30.1698 196.013C30.0746 195.916 29.9794 195.819 29.8804 195.722L35.159 190.339C35.2542 190.436 35.3517 190.533 35.4484 190.63C35.5347 190.718 35.62 190.806 35.7044 190.896Z"
          fill="#FFDFDF"
        />
        <path
          d="M37.5284 192.942L32.2246 198.35C32.0637 198.145 31.8991 197.942 31.731 197.741L37.0243 192.344C37.1951 192.542 37.3631 192.741 37.5284 192.942Z"
          fill="#FFDFDF"
        />
        <path
          d="M39.2048 195.138L33.8339 200.615C33.6914 200.391 33.5455 200.17 33.396 199.95L38.7427 194.497C38.8998 194.709 39.0538 194.923 39.2048 195.138Z"
          fill="#FFDFDF"
        />
        <path
          d="M40.7273 197.491L35.2441 203.082C35.1213 202.839 34.9943 202.597 34.8633 202.358L40.3089 196.805C40.4521 197.032 40.5915 197.261 40.7273 197.491Z"
          fill="#FFDFDF"
        />
        <path
          d="M42.0899 200.01L36.4395 205.771C36.3377 205.507 36.232 205.244 36.1226 204.982L41.7191 199.275C41.8457 199.519 41.9693 199.764 42.0899 200.01Z"
          fill="#FFDFDF"
        />
        <path
          d="M43.277 202.703L37.3863 208.71C37.3098 208.421 37.2287 208.133 37.1431 207.846L42.9567 201.918C43.0671 202.178 43.1739 202.44 43.277 202.703Z"
          fill="#FFDFDF"
        />
        <path
          d="M44.2754 205.591L38.0477 211.942C38.0014 211.623 37.9495 211.305 37.8921 210.988L44.0117 204.748C44.1036 205.028 44.1912 205.309 44.2754 205.591Z"
          fill="#FFDFDF"
        />
        <path
          d="M45.0589 208.698L38.3475 215.542C38.3402 215.186 38.3261 214.83 38.3052 214.474L44.8585 207.792C44.9314 208.093 44.9982 208.395 45.0589 208.698Z"
          fill="#FFDFDF"
        />
        <path
          d="M45.5912 212.062L38.1455 219.655C38.195 219.243 38.2359 218.83 38.2683 218.417L45.4684 211.075C45.5145 211.403 45.5554 211.732 45.5912 212.062Z"
          fill="#FFDFDF"
        />
        <path
          d="M45.8176 215.738L37.0991 224.627C37.2546 224.116 37.3954 223.602 37.5213 223.084L45.7886 214.654C45.8029 215.014 45.8138 215.377 45.8176 215.738Z"
          fill="#FFDFDF"
        />
        <path
          d="M45.7384 218.612C45.7127 219.017 45.6789 219.422 45.637 219.825L33.5396 232.161C34.1347 231.268 34.6791 230.342 35.1703 229.386L45.7384 218.612Z"
          fill="#FFDFDF"
        />
        <path
          d="M45.1635 223.104C45.0724 223.578 44.9718 224.052 44.8617 224.524L18.6091 251.293C18.1467 251.406 17.6826 251.508 17.2168 251.601L45.1635 223.104Z"
          fill="#FFDFDF"
        />
        <path
          d="M43.6952 228.507C43.4753 229.124 43.2385 229.737 42.9846 230.344L24.3167 249.379C23.7221 249.638 23.1215 249.88 22.5151 250.104L43.6952 228.507Z"
          fill="#FFDFDF"
        />
        <path
          d="M45.8174 215.738C45.8131 215.377 45.8036 215.015 45.7883 214.654C45.7541 213.789 45.6884 212.925 45.5913 212.062C45.5554 211.733 45.5143 211.404 45.468 211.075C45.3582 210.279 45.2218 209.486 45.0587 208.697C44.9952 208.393 44.9286 208.09 44.8587 207.788C44.688 207.05 44.4935 206.317 44.2752 205.589C44.1909 205.308 44.1034 205.026 44.0115 204.746C43.7875 204.058 43.5427 203.376 43.2771 202.701C43.1743 202.439 43.0676 202.177 42.9572 201.916C42.6872 201.273 42.3976 200.637 42.0885 200.008C41.9696 199.762 41.846 199.517 41.7178 199.273C41.4068 198.671 41.0766 198.077 40.7273 197.49C40.5911 197.259 40.452 197.03 40.3098 196.803C39.9585 196.24 39.5902 195.685 39.2046 195.137C39.0533 194.921 38.8992 194.708 38.7424 194.496C38.3544 193.968 37.9496 193.451 37.5282 192.943C37.3626 192.742 37.1946 192.542 37.0242 192.345C36.5996 191.852 36.1596 191.369 35.7043 190.896C35.6199 190.808 35.5345 190.719 35.4482 190.631C35.353 190.534 35.2578 190.437 35.1588 190.34C34.6939 189.876 34.22 189.428 33.737 188.997C33.5432 188.823 33.3475 188.651 33.1501 188.483C32.6497 188.054 32.1406 187.641 31.6227 187.246C31.4139 187.084 31.204 186.927 30.993 186.775C30.4558 186.383 29.9103 186.008 29.3566 185.651C29.1345 185.505 28.9098 185.363 28.6826 185.225C28.107 184.869 27.5236 184.533 26.9324 184.217C26.6932 184.087 26.453 183.962 26.2118 183.839C25.5943 183.525 24.9698 183.231 24.3383 182.955C24.0823 182.844 23.8243 182.735 23.5658 182.631C22.903 182.36 22.2339 182.111 21.5586 181.885C21.2835 181.791 21.0076 181.701 20.7309 181.616C20.0166 181.394 19.2969 181.197 18.5719 181.023C18.2752 180.951 17.9778 180.883 17.6799 180.82C16.9059 180.655 16.1285 180.517 15.3476 180.406C15.0255 180.359 14.7026 180.317 14.379 180.281C13.5323 180.184 12.6837 180.118 11.8329 180.084C11.4788 180.068 11.1242 180.059 10.7691 180.056C9.82765 180.047 8.88648 180.076 7.94563 180.142C7.54708 180.17 7.14883 180.205 6.75092 180.247C5.67203 180.361 4.59807 180.525 3.52902 180.739C3.06193 180.833 2.59659 180.936 2.13299 181.05C0.803535 181.374 -0.506224 181.777 -1.78957 182.257C-2.39851 182.484 -3.00235 182.728 -3.60113 182.991C-5.76304 183.94 -7.82588 185.107 -9.75841 186.477C-11.5001 187.711 -13.1301 189.101 -14.6291 190.631C-16.1293 192.159 -17.4927 193.822 -18.703 195.597C-20.046 197.568 -21.1911 199.671 -22.121 201.876C-22.3783 202.486 -22.6184 203.102 -22.8412 203.723C-23.3119 205.032 -23.7071 206.367 -24.0249 207.723C-24.1363 208.195 -24.2378 208.67 -24.3295 209.146C-24.5399 210.235 -24.7005 211.33 -24.8112 212.431C-24.8535 212.837 -24.888 213.243 -24.915 213.65C-24.9785 214.608 -25.0064 215.568 -24.9988 216.529C-24.995 216.89 -24.9861 217.252 -24.9721 217.613C-24.9385 218.48 -24.8738 219.345 -24.7779 220.21C-24.7421 220.54 -24.7014 220.869 -24.6561 221.197C-24.5469 221.994 -24.4114 222.787 -24.2496 223.576C-24.188 223.879 -24.1217 224.183 -24.0506 224.485C-23.8809 225.224 -23.6871 225.958 -23.4694 226.687C-23.3857 226.969 -23.2978 227.25 -23.2057 227.531C-22.9836 228.219 -22.7398 228.901 -22.4742 229.577C-22.3718 229.841 -22.2647 230.103 -22.1557 230.365C-21.8857 231.008 -21.5968 231.645 -21.289 232.275C-21.1687 232.521 -21.0453 232.765 -20.9187 233.01C-20.6077 233.613 -20.278 234.207 -19.9296 234.794C-19.7941 235.025 -19.6551 235.254 -19.5126 235.482C-19.1636 236.046 -18.796 236.602 -18.4098 237.15C-18.2591 237.365 -18.1052 237.58 -17.9481 237.792C-17.5607 238.32 -17.1564 238.84 -16.7353 239.35C-16.5703 239.551 -16.4023 239.75 -16.2313 239.948C-15.8079 240.441 -15.3688 240.925 -14.9137 241.399C-14.8185 241.496 -14.7233 241.595 -14.6281 241.693C-14.5418 241.781 -14.4552 241.868 -14.3683 241.954C-13.9043 242.419 -13.4309 242.867 -12.9479 243.3C-12.7541 243.473 -12.5586 243.645 -12.3615 243.814C-11.8621 244.243 -11.3544 244.655 -10.8384 245.052C-10.6306 245.214 -10.421 245.371 -10.2096 245.523C-9.67305 245.916 -9.12821 246.292 -8.57512 246.65C-8.35299 246.795 -8.12832 246.937 -7.90112 247.076C-7.32582 247.432 -6.74308 247.768 -6.15287 248.086C-5.91361 248.215 -5.67338 248.341 -5.43222 248.464C-4.81535 248.779 -4.19167 249.075 -3.56116 249.35C-3.3054 249.462 -3.0487 249.571 -2.79103 249.676C-2.12879 249.947 -1.46017 250.197 -0.785233 250.425C-0.511068 250.518 -0.235001 250.608 0.0415421 250.694C0.754877 250.916 1.47359 251.114 2.19771 251.289C2.49409 251.361 2.7911 251.429 3.08875 251.492C3.86174 251.658 4.63918 251.798 5.42106 251.91C5.74314 251.957 6.06585 251.999 6.3892 252.036C7.23485 252.135 8.08226 252.202 8.9314 252.237C9.28506 252.252 9.64013 252.262 9.99379 252.266C10.9343 252.278 11.8741 252.251 12.813 252.186C13.2106 252.159 13.6072 252.124 14.0029 252.082C15.0796 251.972 16.151 251.81 17.2172 251.597C17.6821 251.504 18.1462 251.401 18.6095 251.289C19.933 250.97 21.2372 250.573 22.5154 250.1C23.1211 249.875 23.7216 249.634 24.3169 249.375C26.4457 248.45 28.4794 247.312 30.3881 245.977C32.2009 244.712 33.8949 243.279 35.4482 241.695C37.0033 240.111 38.4113 238.383 39.6539 236.534C40.962 234.588 42.0781 232.514 42.9858 230.344C43.2396 229.737 43.4765 229.125 43.6964 228.507C44.1609 227.203 44.5504 225.873 44.8631 224.524C44.9732 224.052 45.0737 223.579 45.1648 223.104C45.3727 222.018 45.5313 220.925 45.6408 219.827C45.682 219.423 45.7158 219.018 45.7422 218.613C45.8034 217.656 45.8285 216.697 45.8174 215.738ZM33.5371 232.162C32.5442 233.651 31.4159 235.04 30.1672 236.312C28.9196 237.585 27.5572 238.736 26.0981 239.748C25.2227 240.355 24.314 240.91 23.3764 241.411C21.8822 242.21 20.3196 242.868 18.708 243.378C18.2073 243.536 17.7029 243.68 17.1949 243.808C16.0879 244.091 14.9648 244.303 13.8321 244.444C13.4275 244.495 13.0226 244.536 12.6174 244.569C11.6791 244.645 10.7391 244.672 9.79766 244.651C9.44861 244.644 9.09958 244.629 8.75053 244.608C7.92074 244.558 7.09332 244.471 6.26829 244.345C5.95573 244.297 5.64412 244.245 5.33347 244.186C4.58364 244.046 3.83906 243.874 3.0997 243.67C2.81602 243.593 2.53359 243.51 2.25245 243.422C1.56704 243.21 0.888607 242.97 0.217159 242.703C-0.0417747 242.599 -0.299744 242.492 -0.556772 242.38C-1.18633 242.106 -1.80718 241.808 -2.41929 241.485C-2.6576 241.36 -2.89447 241.231 -3.12992 241.097C-3.70871 240.771 -4.27846 240.421 -4.83916 240.047C-5.05843 239.902 -5.27594 239.753 -5.49171 239.601C-6.02513 239.224 -6.54873 238.826 -7.06247 238.406C-7.26333 238.242 -7.46227 238.075 -7.65933 237.903C-8.14895 237.48 -8.62732 237.036 -9.09441 236.573C-9.18152 236.486 -9.26768 236.399 -9.35431 236.312C-9.4495 236.215 -9.54469 236.117 -9.63988 236.017C-10.0943 235.54 -10.5289 235.052 -10.9436 234.552C-11.1108 234.351 -11.275 234.147 -11.4362 233.942C-11.8468 233.419 -12.2365 232.885 -12.6052 232.34C-12.7556 232.12 -12.9014 231.898 -13.0427 231.674C-13.4085 231.103 -13.7509 230.52 -14.0698 229.927C-14.2017 229.687 -14.3278 229.445 -14.4506 229.202C-14.766 228.577 -15.0575 227.943 -15.325 227.3C-15.4348 227.038 -15.5398 226.774 -15.6401 226.509C-15.9016 225.825 -16.1359 225.133 -16.3431 224.432C-16.4288 224.145 -16.5097 223.856 -16.5854 223.567C-16.784 222.813 -16.9517 222.052 -17.0885 221.286C-17.145 220.967 -17.1961 220.649 -17.2417 220.33C-17.3636 219.489 -17.4482 218.644 -17.4955 217.794C-17.5154 217.439 -17.5286 217.081 -17.5349 216.722C-17.5541 215.761 -17.5255 214.799 -17.4493 213.841C-17.4175 213.427 -17.3753 213.013 -17.3227 212.6C-17.1813 211.441 -16.9698 210.292 -16.6891 209.16C-16.5606 208.64 -16.4178 208.123 -16.2607 207.609C-15.7517 205.951 -15.0933 204.344 -14.294 202.81C-13.784 201.829 -13.2177 200.88 -12.5981 199.967C-11.6372 198.552 -10.5531 197.229 -9.35904 196.012C-8.16589 194.794 -6.86758 193.689 -5.47983 192.709C-4.58484 192.077 -3.65411 191.5 -2.69249 190.98C-1.18766 190.165 0.387875 189.493 2.01399 188.974C2.51758 188.812 3.02529 188.667 3.53713 188.537C4.64755 188.251 5.77427 188.036 6.91084 187.891C7.31638 187.839 7.72193 187.796 8.12746 187.762C9.06737 187.684 10.0105 187.655 10.9534 187.675C11.3024 187.68 11.6529 187.694 12.0048 187.715C12.8362 187.763 13.665 187.85 14.4913 187.973C14.8045 188.02 15.1169 188.072 15.4285 188.13C16.1786 188.27 16.9243 188.441 17.6656 188.643C17.9512 188.719 18.233 188.802 18.5143 188.889C19.2003 189.1 19.8794 189.339 20.5515 189.606C20.8113 189.709 21.0696 189.816 21.3264 189.928C21.9562 190.2 22.5782 190.497 23.1922 190.819C23.4302 190.944 23.6682 191.073 23.9028 191.207C24.4832 191.533 25.0544 191.882 25.6163 192.255C25.8363 192.399 26.0543 192.548 26.2704 192.701C26.8038 193.077 27.3273 193.474 27.8411 193.893C28.0426 194.057 28.2422 194.225 28.4399 194.396C28.9301 194.819 29.409 195.262 29.8764 195.725C29.9716 195.822 30.0706 195.919 30.1658 196.016C30.2524 196.105 30.3371 196.192 30.4218 196.281C30.8769 196.757 31.3118 197.245 31.7265 197.744C31.8953 197.946 32.0598 198.149 32.2201 198.353C32.6326 198.875 33.0231 199.409 33.3915 199.955C33.5413 200.175 33.6872 200.397 33.8294 200.62C34.1959 201.191 34.5392 201.772 34.8594 202.363C34.9901 202.603 35.117 202.845 35.2402 203.088C35.5575 203.712 35.8499 204.345 36.1174 204.987C36.2272 205.249 36.3329 205.512 36.4344 205.776C36.6959 206.46 36.931 207.151 37.1398 207.851C37.2252 208.138 37.3062 208.426 37.383 208.715C37.5829 209.468 37.7514 210.228 37.8885 210.993C37.946 211.31 37.9979 211.627 38.0442 211.946C38.167 212.787 38.253 213.631 38.3022 214.477C38.3228 214.833 38.3369 215.189 38.3445 215.545C38.3645 216.503 38.3378 217.462 38.2645 218.42C38.2328 218.833 38.1919 219.246 38.1417 219.659C38.0034 220.814 37.7952 221.959 37.5182 223.088C37.3913 223.605 37.2506 224.12 37.096 224.631C36.5965 226.274 35.9509 227.867 35.1674 229.391C34.6771 230.346 34.1335 231.271 33.5395 232.162H33.5371Z"
          fill="#FFDFDF"
        />
        <path
          d="M26.6288 216.163C26.6293 217.037 26.562 217.91 26.4275 218.773C26.3548 219.245 26.2623 219.71 26.15 220.168C25.7242 221.911 25.0214 223.571 24.0695 225.083C22.8041 227.093 21.1287 228.802 19.1574 230.092C17.6749 231.062 16.0467 231.779 14.3371 232.213C13.8885 232.327 13.4326 232.422 12.9696 232.496C12.1228 232.633 11.2668 232.702 10.4094 232.702C10.2832 232.702 10.158 232.702 10.0329 232.697C9.6838 232.689 9.33905 232.67 8.99856 232.639C8.20346 232.57 7.41452 232.44 6.63819 232.251C6.34816 232.181 6.06128 232.102 5.7776 232.016C5.09544 231.81 4.42757 231.557 3.77848 231.26C3.52907 231.146 3.283 231.026 3.04025 230.9C2.44607 230.59 1.87125 230.243 1.3191 229.861C1.10237 229.712 0.890109 229.558 0.682265 229.399C0.163618 229.002 -0.331334 228.573 -0.799941 228.116C-0.98589 227.935 -1.16742 227.75 -1.34448 227.56C-1.79146 227.08 -2.21023 226.575 -2.59866 226.045C-2.75415 225.831 -2.90488 225.614 -3.05085 225.394C-3.42453 224.829 -3.76314 224.242 -4.06468 223.634C-4.18844 223.386 -4.30584 223.135 -4.4169 222.88C-4.70698 222.217 -4.95299 221.535 -5.15324 220.838C-5.23765 220.547 -5.31383 220.254 -5.38173 219.959C-5.56479 219.165 -5.68952 218.358 -5.7549 217.545C-5.78377 217.196 -5.80154 216.843 -5.80821 216.488C-5.80821 216.379 -5.81152 216.271 -5.81152 216.162C-5.81212 215.264 -5.74113 214.367 -5.59924 213.481C-5.5234 213.005 -5.42822 212.537 -5.31366 212.077C-4.86973 210.297 -4.13693 208.606 -3.14558 207.073C-1.92875 205.191 -0.349904 203.582 1.49521 202.342C2.99862 201.331 4.6573 200.584 6.40255 200.131C6.85442 200.014 7.31342 199.917 7.77956 199.84C8.64896 199.695 9.52846 199.623 10.4094 199.623C10.5165 199.623 10.6226 199.623 10.7288 199.627C11.0778 199.634 11.4235 199.652 11.7659 199.681C12.5629 199.748 13.354 199.875 14.1325 200.062C14.4235 200.131 14.7109 200.208 14.9949 200.295C15.6783 200.499 16.3475 200.75 16.9979 201.045C17.2479 201.158 17.4943 201.278 17.7371 201.405C18.3332 201.712 18.9097 202.057 19.4634 202.438C19.6795 202.587 19.8923 202.741 20.1017 202.899C20.6212 203.296 21.1172 203.723 21.5873 204.178C21.7738 204.359 21.9557 204.544 22.1327 204.734C22.5812 205.211 23.0013 205.716 23.3907 206.245C23.5469 206.457 23.6981 206.674 23.8444 206.894C24.2193 207.458 24.5596 208.045 24.8634 208.651C24.9869 208.899 25.1044 209.15 25.2161 209.404C25.5076 210.066 25.7553 210.747 25.9577 211.443C26.0427 211.732 26.1195 212.024 26.1881 212.32C26.373 213.112 26.5003 213.916 26.5689 214.727C26.599 215.075 26.6179 215.427 26.6255 215.782C26.6279 215.906 26.6288 216.034 26.6288 216.163Z"
          fill="#364F6B"
        />
        <path
          d="M68.3726 16.6086L59.9009 25.2458C59.4694 25.1662 59.0373 25.0941 58.6045 25.0297L67.2296 16.2347C67.611 16.3537 67.992 16.4784 68.3726 16.6086Z"
          fill="#B4621C"
        />
        <path
          d="M72.2169 18.0897L64.1686 26.2965C63.7795 26.1764 63.387 26.0615 62.9946 25.9555L71.149 17.6405C71.5059 17.7849 71.8627 17.9359 72.2169 18.0897Z"
          fill="#B4621C"
        />
        <path
          d="M75.805 19.8346L68.0582 27.7326C67.7031 27.5778 67.3458 27.4296 66.9863 27.2882L74.8082 19.3123C75.1413 19.4819 75.4736 19.656 75.805 19.8346Z"
          fill="#B4621C"
        />
        <path
          d="M384.187 56.4461L374.142 66.6873C373.63 66.5929 373.118 66.5074 372.604 66.431L382.831 56.0027C383.284 56.1439 383.735 56.2917 384.187 56.4461Z"
          fill="#B4621C"
        />
        <path
          d="M388.745 58.2022L379.202 67.9332C378.741 67.7907 378.275 67.6545 377.81 67.5288L387.479 57.6696C387.902 57.8408 388.325 58.0199 388.745 58.2022Z"
          fill="#B4621C"
        />
        <path
          d="M393 60.2712L383.814 69.6359C383.393 69.4523 382.97 69.2766 382.543 69.1089L391.818 59.6518C392.213 59.853 392.607 60.0594 393 60.2712Z"
          fill="#B4621C"
        />
      </svg>

  
